<svg width="60" height="60" viewBox="0 0 60 60" fill="none" xmlns="http://www.w3.org/2000/svg">
<path d="M44 33V7C44 5.34 42.66 4 41 4H17C15.34 4 14 5.34 14 7V49C14 50.66 15.34 52 17 52H20" stroke="black" stroke-width="2" stroke-miterlimit="10" stroke-linejoin="round"/>
<path d="M25.5 8.5H32.5" stroke="black" stroke-miterlimit="10" stroke-linecap="square" stroke-linejoin="round"/>
<path d="M28.6101 56.16L18.9501 41.67C18.1401 40.45 18.4201 38.81 19.5901 37.93C20.6901 37.11 22.2201 37.22 23.1901 38.19L26.5001 41.5V26C26.5001 24.62 27.6201 23.5 29.0001 23.5C30.3801 23.5 31.5001 24.62 31.5001 26V41.5V35C31.5001 33.62 32.6201 32.5 34.0001 32.5C35.3801 32.5 36.5001 33.62 36.5001 35V42.5V38C36.5001 36.62 37.6201 35.5 39.0001 35.5C40.3801 35.5 41.5001 36.62 41.5001 38V43.5V40C41.5001 38.62 42.6201 37.5 44.0001 37.5C45.3801 37.5 46.5001 38.62 46.5001 40V51.5C46.5001 54.81 43.8101 57.5 40.5001 57.5H31.1101C30.1001 57.5 29.1701 57 28.6101 56.16Z" stroke="black" stroke-miterlimit="10" stroke-linecap="round" stroke-linejoin="round"/>
</svg>
